# xmcd
#
# Track frame offsets: 
#        150
#        16561
#        31335
#        42626
#        52501
#        76114
#        96207
#        110608
#        129205
#        138961
#        153071
#        168439
#        184958
#        206414
#        226427
#        244799
#        266295
#        279916
#        293510
#        318169
#        330849
#
# Disc length: 4657 seconds
#
# Revision: 0
# Processed by: cddbd v1.4PL0 Copyright (c) Steve Scherf et al.
# Submitted via: ExactAudioCopy v0.95a3
#
DISCID=fd122f15
DTITLE=John Denver  - The Rocky Mountain Collection - Disc 1
DYEAR=1900
DGENRE=
TTITLE0=leaving on a jet plane
TTITLE1=rhymes and reasons
TTITLE2=follow me
TTITLE3=aspenglow
TTITLE4=sunshine on my shoulders
TTITLE5=my sweet lady
TTITLE6=take me home country roads
TTITLE7=poems prayers and promises
TTITLE8=the eagle and the hawk
TTITLE9=starwood in aspen
TTITLE10=friends with you
TTITLE11=goodbye again
TTITLE12=rocky mountain high
TTITLE13=i'd rather be a cowboy
TTITLE14=farewell andromeda
TTITLE15=back home again
TTITLE16=annie's song
TTITLE17=thank god i'm a country boy
TTITLE18=sweet surrender
TTITLE19=this old guitar
TTITLE20=wild montana skies
EXTD=
EXTT0=
EXTT1=
EXTT2=
EXTT3=
EXTT4=
EXTT5=
EXTT6=
EXTT7=
EXTT8=
EXTT9=
EXTT10=
EXTT11=
EXTT12=
EXTT13=
EXTT14=
EXTT15=
EXTT16=
EXTT17=
EXTT18=
EXTT19=
EXTT20=
PLAYORDER=
